<?xml version="1.0" encoding="UTF-8"?>
<!DOCTYPE svg PUBLIC "-//W3C//DTD SVG 1.1//EN" "http://www.w3.org/Graphics/SVG/1.1/DTD/svg11.dtd">
<!-- Creator: CorelDRAW -->
<svg xmlns="http://www.w3.org/2000/svg" xml:space="preserve" width="215.9mm" height="279.4mm" style="shape-rendering:geometricPrecision; text-rendering:geometricPrecision; image-rendering:optimizeQuality; fill-rule:evenodd; clip-rule:evenodd"
viewBox="0 0 215.9 279.4"
 xmlns:xlink="http://www.w3.org/1999/xlink">
 <defs>
  <style type="text/css">
   <![CDATA[
    .str2 {stroke:white;stroke-width:2.8222}
    .str1 {stroke:white;stroke-width:5.6444}
    .str0 {stroke:white;stroke-width:8.4666}
    .fil1 {fill:none}
    .fil0 {fill:url(#id0)}
   ]]>
  </style>
  <radialGradient id="id0" gradientUnits="userSpaceOnUse" cx="142.478" cy="25.9985" r="119.973" fx="142.478" fy="25.9985">
   <stop offset="0" style="stop-color:white"/>
   <stop offset="1" style="stop-color:#81B14B"/>
  </radialGradient>
 </defs>
 <g id="Layer_x0020_1">
  <metadata id="CorelCorpID_0Corel-Layer"/>
  <rect class="fil0" x="47.8055" y="41.4553" width="193.21" height="193.21" rx="20.3222" ry="20.3222"/>
  <rect class="fil1 str0" x="86.9076" y="80.5574" width="115.006" height="115.006"/>
  <rect class="fil1 str1" x="104.584" y="98.2333" width="79.6537" height="79.6537"/>
  <circle class="fil1 str2" cx="166.114" cy="138.284" r="7.15988"/>
  <circle class="fil1 str2" cx="166.114" cy="138.284" r="2.62862"/>
  <circle class="fil1 str2" cx="178.851" cy="103.619" r="0.838881"/>
  <circle class="fil1 str2" cx="168.079" cy="103.619" r="0.838881"/>
  <circle class="fil1 str2" cx="157.307" cy="103.619" r="0.838881"/>
  <circle class="fil1 str2" cx="144.74" cy="103.619" r="0.838881"/>
  <circle class="fil1 str2" cx="133.968" cy="103.619" r="0.838881"/>
  <circle class="fil1 str2" cx="121.4" cy="103.619" r="0.838881"/>
  <circle class="fil1 str2" cx="110.746" cy="171.842" r="0.838881"/>
  <circle class="fil1 str2" cx="121.518" cy="171.842" r="0.838881"/>
  <circle class="fil1 str2" cx="132.29" cy="171.842" r="0.838881"/>
  <circle class="fil1 str2" cx="144.857" cy="171.842" r="0.838881"/>
  <circle class="fil1 str2" cx="155.629" cy="171.842" r="0.838881"/>
  <circle class="fil1 str2" cx="168.197" cy="171.842" r="0.838881"/>
  <circle class="fil1 str2" transform="matrix(-9.35981E-015 -0.353406 -0.353406 9.35981E-015 110.746 103.619)" r="2.3737"/>
  <circle class="fil1 str2" transform="matrix(-9.35981E-015 -0.353406 -0.353406 9.35981E-015 110.746 114.391)" r="2.3737"/>
  <circle class="fil1 str2" transform="matrix(-9.35981E-015 -0.353406 -0.353406 9.35981E-015 110.746 125.164)" r="2.3737"/>
  <circle class="fil1 str2" transform="matrix(-9.35981E-015 -0.353406 -0.353406 9.35981E-015 110.746 137.731)" r="2.3737"/>
  <circle class="fil1 str2" transform="matrix(-9.35981E-015 -0.353406 -0.353406 9.35981E-015 110.746 148.503)" r="2.3737"/>
  <circle class="fil1 str2" transform="matrix(-9.35981E-015 -0.353406 -0.353406 9.35981E-015 110.746 161.07)" r="2.3737"/>
  <circle class="fil1 str2" transform="matrix(-9.35981E-015 0.353406 -0.353406 -9.35981E-015 178.969 171.725)" r="2.3737"/>
  <circle class="fil1 str2" transform="matrix(-9.35981E-015 0.353406 -0.353406 -9.35981E-015 178.969 160.953)" r="2.3737"/>
  <circle class="fil1 str2" transform="matrix(-9.35981E-015 0.353406 -0.353406 -9.35981E-015 178.969 150.181)" r="2.3737"/>
  <circle class="fil1 str2" transform="matrix(-9.35981E-015 0.353406 -0.353406 -9.35981E-015 178.969 137.613)" r="2.3737"/>
  <circle class="fil1 str2" transform="matrix(-9.35981E-015 0.353406 -0.353406 -9.35981E-015 178.969 126.841)" r="2.3737"/>
  <circle class="fil1 str2" transform="matrix(-9.35981E-015 0.353406 -0.353406 -9.35981E-015 178.969 114.274)" r="2.3737"/>
 </g>
</svg>
